<svg width="207" height="19" viewBox="0 0 207 19" fill="none" xmlns="http://www.w3.org/2000/svg">
<path d="M0 18.676C0.566 18.388 0.823 17.695 0.823 17.103V2.618C0.823 2.006 0.571 1.333 0 1.029H6.895C9.971 1.029 12.965 2.289 12.965 5.785C12.965 7.637 11.355 9.099 9.612 9.428C12.117 9.402 14.537 10.936 14.537 13.708C14.537 17.664 10.395 18.676 7.475 18.676H0ZM5.581 2.547C5.263 2.547 5.041 2.547 4.45 2.618V8.795H5.147C7.258 8.795 9.304 8.143 9.304 5.689C9.304 3.255 7.667 2.547 5.581 2.547ZM6.021 10.384C5.516 10.384 5.066 10.384 4.45 10.43V16.951C5.213 17.103 6.04 17.148 6.804 17.148C8.571 17.148 10.37 16.359 10.37 13.652C10.37 10.986 8.244 10.384 6.021 10.384ZM21.355 2.547C21.042 2.547 20.765 2.597 20.451 2.643V8.745C20.739 8.765 21.001 8.795 21.285 8.795C23.27 8.795 24.735 7.697 24.735 5.542C24.74 3.332 23.295 2.547 21.355 2.547ZM30.24 18.777C29.563 18.777 28.82 18.803 28.174 18.61C26.977 18.256 25.32 15.55 24.659 14.487C23.633 12.762 22.744 10.384 20.451 10.359V17.103C20.451 17.695 20.719 18.408 21.285 18.676H15.99C16.546 18.388 16.814 17.725 16.814 17.103V2.618C16.814 2.006 16.546 1.333 15.99 1.029H22.36C25.133 1.029 28.602 2.097 28.602 5.431C28.602 8.229 26.289 9.666 23.713 9.666C27.38 9.686 29.537 18.306 33.583 18.332C32.502 18.646 31.371 18.777 30.24 18.777ZM33.856 18.677C34.296 18.479 34.751 17.897 34.751 17.103V2.618C34.751 1.814 34.291 1.247 33.856 1.029H39.281C38.817 1.247 38.392 1.819 38.392 2.618V17.103C38.392 17.897 38.817 18.473 39.282 18.676H33.857L33.856 18.677ZM45.62 18.677C46.201 18.408 46.484 17.725 46.484 17.103V3.048H42.59C41.69 3.048 40.62 3.159 39.847 3.62L41.059 1.024H53.975C55.02 1.024 56.091 0.998999 57.106 0.785999C56.616 2.117 55.151 3.099 54.308 3.099C53.282 3.073 51.585 3.008 50.126 3.008V17.103C50.126 17.72 50.429 18.408 50.999 18.676L45.62 18.677ZM57.753 18.677C58.187 18.479 58.642 17.897 58.642 17.103V2.618C58.642 1.814 58.187 1.247 57.752 1.029H63.172C62.712 1.247 62.268 1.819 62.268 2.618V17.103C62.268 17.897 62.708 18.473 63.172 18.676H57.752L57.753 18.677ZM73.733 14.684C73.733 11.325 65.829 10.566 65.829 5.198C65.829 1.874 68.986 0.785999 71.759 0.785999C72.996 0.785999 74.789 0.958 75.921 1.48L76.118 4.778C75.421 3.321 73.683 2.264 72.062 2.264C70.784 2.264 69.445 2.896 69.445 4.364C69.445 7.849 77.482 8.699 77.482 13.784C77.482 17.472 74.264 19 71.016 19C69.319 19 67.006 18.671 65.576 17.69C65.491 17.0898 65.4489 16.4842 65.45 15.878C65.45 15.16 65.51 14.437 65.622 13.723C66.516 15.762 68.365 17.361 70.678 17.361C72.426 17.366 73.733 16.597 73.733 14.684ZM90.665 18.676C91.048 18.504 91.458 17.897 91.458 17.103V10.536C90.513 10.429 89.195 10.384 87.72 10.384C86.22 10.384 84.891 10.43 83.927 10.536V17.103C83.927 17.897 84.326 18.473 84.715 18.676H79.492C79.881 18.504 80.29 17.897 80.29 17.103V2.618C80.29 1.814 79.876 1.222 79.492 1.029H84.715C84.325 1.222 83.927 1.819 83.927 2.618V8.552C84.891 8.654 86.2 8.704 87.72 8.704C89.2 8.704 90.513 8.638 91.458 8.552V2.618C91.458 1.814 91.048 1.222 90.665 1.029H95.877C95.488 1.222 95.099 1.819 95.099 2.618V17.103C95.099 17.897 95.489 18.473 95.877 18.676H90.665ZM115.232 18.676C115.399 18.504 115.556 18.373 115.556 18.064C115.556 17.958 115.515 17.781 115.389 17.452C115.389 17.452 113.944 13.506 113.773 13.05C112.687 12.919 111.55 12.919 110.444 12.919C109.389 12.919 108.323 12.944 107.282 13.05C106.72 14.4915 106.155 15.9315 105.585 17.37C105.378 17.902 105.302 18.08 105.302 18.196C105.302 18.459 105.53 18.586 105.716 18.676H102.171C102.696 18.408 103.146 17.862 103.373 17.32L109.202 2.254C109.228 2.18434 109.24 2.11026 109.237 2.036C109.237 1.621 108.959 1.226 108.59 1.034H113.162L119.091 17.31C119.334 17.963 119.849 18.438 120.283 18.681H115.232V18.676ZM110.626 4.384L107.954 11.254C108.752 11.34 109.575 11.36 110.384 11.36C111.308 11.36 112.222 11.36 113.116 11.254L110.626 4.384ZM121.177 18.676C121.617 18.479 122.066 17.897 122.066 17.103V2.618C122.066 1.814 121.612 1.247 121.177 1.029H126.597C126.137 1.247 125.708 1.819 125.708 2.618V17.103C125.708 17.897 126.137 18.473 126.597 18.676H121.177ZM134.835 2.547C134.542 2.547 134.259 2.597 133.956 2.643V8.745C134.239 8.765 134.497 8.795 134.77 8.795C136.76 8.795 138.219 7.697 138.219 5.542C138.224 3.332 136.775 2.547 134.835 2.547ZM144.159 18.777C143.482 18.777 142.755 18.803 142.093 18.61C140.891 18.256 139.24 15.55 138.583 14.487C137.563 12.762 136.234 10.359 133.956 10.359V17.103C133.956 17.695 134.214 18.408 134.77 18.676H129.481C130.052 18.388 130.315 17.725 130.315 17.103V2.618C130.315 2.006 130.052 1.333 129.481 1.029H135.866C138.629 1.029 142.093 2.097 142.093 5.431C142.093 8.229 139.568 9.666 137.654 9.666C141.457 9.883 143.745 18.332 147.518 18.332C146.432 18.646 145.301 18.777 144.159 18.777ZM166.141 2.75L160.787 18.676C160.343 18.676 159.913 18.524 159.666 18.352C159.135 17.842 158.307 15.706 158.004 14.922L155.585 8.8L152.099 18.681H150.443L144.452 2.719C144.195 2.041 143.755 1.389 143.104 1.034H148.311C148.094 1.206 147.942 1.399 147.942 1.768C147.942 1.945 148.028 2.193 148.094 2.38L151.998 12.944L156.15 1.034L160.726 12.519L164.191 2.122C164.277 1.839 164.328 1.732 164.328 1.555C164.328 1.338 164.232 1.201 164.015 1.029H167.464C166.823 1.363 166.363 2.093 166.141 2.75ZM172.546 4.384L169.874 11.254C170.682 11.34 171.505 11.36 172.308 11.36C173.222 11.36 174.147 11.36 175.041 11.254L172.546 4.384ZM177.142 18.676C177.324 18.504 177.46 18.373 177.46 18.064C177.46 17.958 177.41 17.781 177.299 17.452C177.299 17.452 175.859 13.506 175.687 13.05C174.591 12.919 173.46 12.919 172.349 12.919C171.308 12.919 170.237 12.944 169.187 13.05C169.035 13.445 167.495 17.37 167.495 17.37C167.272 17.902 167.212 18.08 167.212 18.196C167.212 18.459 167.429 18.586 167.616 18.676H164.07C164.595 18.408 165.045 17.862 165.267 17.32L171.116 2.254C171.131 2.193 171.152 2.122 171.152 2.036C171.152 1.621 170.874 1.226 170.495 1.034H175.071L180.996 17.31C181.238 17.963 181.764 18.438 182.198 18.681H177.142V18.676ZM193.063 2.881L188.891 10.212V17.102C188.891 17.664 189.123 18.408 189.679 18.676H184.486C185.016 18.388 185.259 17.649 185.259 17.103V10.187L181.632 4.363C181.309 3.817 179.794 1.283 177.95 1.283C178.45 1.095 179.976 0.802 181.001 0.802C182.708 0.802 183.552 0.959 184.597 2.598L187.956 7.925C188.239 7.405 190.896 2.775 190.896 2.775C191.219 2.213 191.436 1.814 191.436 1.616C191.436 1.363 191.325 1.196 191.068 1.024H194.81C194.073 1.378 193.462 2.183 193.063 2.881ZM202.831 14.684C202.831 11.325 194.926 10.566 194.926 5.198C194.926 1.874 198.073 0.785999 200.846 0.785999C202.089 0.785999 203.867 0.958 205.008 1.48L205.205 4.778C204.503 3.321 202.766 2.264 201.149 2.264C199.866 2.264 198.538 2.896 198.538 4.364C198.538 7.849 206.574 8.699 206.574 13.784C206.574 17.472 203.377 19 200.109 19C198.412 19 196.093 18.671 194.659 17.69C194.568 17.0903 194.522 16.4846 194.522 15.878C194.522 15.16 194.593 14.437 194.699 13.723C195.593 15.762 197.452 17.361 199.76 17.361C201.523 17.366 202.831 16.597 202.831 14.684Z" fill="#2E5C99"/>
</svg>
